#define Extruder_Icon_width 24
#define Extruder_Icon_height 23
static unsigned char Extruder_Icon_bits[] = {
   0xfc, 0xff, 0x3f, 0xfe, 0xff, 0x7f, 0x03, 0x00, 0xc0, 0x03, 0x00, 0xc0,
   0x03, 0x00, 0xc0, 0x03, 0x00, 0xc0, 0xfe, 0xff, 0x7f, 0xfc, 0xff, 0x3f,
   0xfc, 0xff, 0x3f, 0xfe, 0xff, 0x7f, 0x03, 0x00, 0xc0, 0x03, 0x00, 0xc0,
   0x03, 0x00, 0xc0, 0x03, 0x00, 0xc0, 0xfe, 0xff, 0x7f, 0xfe, 0xff, 0x7f,
   0xe0, 0xff, 0x07, 0xc0, 0xff, 0x03, 0x80, 0x81, 0x01, 0x00, 0xc3, 0x00,
   0x00, 0x66, 0x00, 0x00, 0x3c, 0x00, 0x00, 0x3c, 0x00 };
