#define File_Icon_width 25
#define File_Icon_height 32
static unsigned char File_Icon_bits[] = {
   0x00, 0x00, 0x00, 0x00, 0xfe, 0x7f, 0x00, 0x00, 0x02, 0xc0, 0x00, 0x00,
   0x02, 0x40, 0x01, 0x00, 0x02, 0x40, 0x02, 0x00, 0x02, 0x40, 0x04, 0x00,
   0x02, 0x40, 0x08, 0x00, 0x02, 0x40, 0x10, 0x00, 0x02, 0x40, 0x20, 0x00,
   0x02, 0x40, 0x40, 0x00, 0x02, 0xc0, 0xff, 0x00, 0x02, 0x00, 0x80, 0x00,
   0x02, 0x00, 0x80, 0x00, 0x02, 0x00, 0x80, 0x00, 0x02, 0x00, 0x80, 0x00,
   0x02, 0x00, 0x80, 0x00, 0x02, 0x00, 0x80, 0x00, 0x02, 0x00, 0x80, 0x00,
   0x02, 0x00, 0x80, 0x00, 0x02, 0x00, 0x80, 0x00, 0x02, 0x00, 0x80, 0x00,
   0x02, 0x00, 0x80, 0x00, 0x02, 0x00, 0x80, 0x00, 0x02, 0x00, 0x80, 0x00,
   0x02, 0x00, 0x80, 0x00, 0x02, 0x00, 0x80, 0x00, 0x02, 0x00, 0x80, 0x00,
   0x02, 0x00, 0x80, 0x00, 0x02, 0x00, 0x80, 0x00, 0x02, 0x00, 0x80, 0x00,
   0xfe, 0xff, 0xff, 0x00, 0x00, 0x00, 0x00, 0x00 };
