#define LightBulb_Icon_width 31
#define LightBulb_Icon_height 32
static unsigned char LightBulb_Icon_bits[] = {
   0x00, 0x00, 0x00, 0x00, 0x00, 0x80, 0x00, 0x00, 0x00, 0x80, 0x00, 0x00,
   0x00, 0x80, 0x00, 0x00, 0x00, 0x80, 0x00, 0x00, 0x20, 0x00, 0x00, 0x02,
   0x40, 0x00, 0x00, 0x01, 0x80, 0x00, 0x80, 0x00, 0x00, 0x01, 0x40, 0x00,
   0x00, 0xf0, 0x07, 0x00, 0x00, 0x18, 0x0c, 0x00, 0x00, 0x6c, 0x18, 0x00,
   0x00, 0x34, 0x10, 0x00, 0x00, 0x1a, 0x20, 0x00, 0x00, 0x0a, 0x20, 0x00,
   0x3e, 0x0a, 0x20, 0x3e, 0x00, 0x02, 0x20, 0x00, 0x00, 0x02, 0x20, 0x00,
   0x00, 0x06, 0x30, 0x00, 0x00, 0x04, 0x10, 0x00, 0x00, 0x08, 0x08, 0x00,
   0x00, 0x08, 0x08, 0x00, 0x00, 0x11, 0x44, 0x00, 0x80, 0x10, 0x84, 0x00,
   0x40, 0x10, 0x04, 0x01, 0x20, 0xf0, 0x07, 0x02, 0x00, 0xe0, 0x03, 0x00,
   0x00, 0x00, 0x00, 0x00, 0x00, 0xe0, 0x03, 0x00, 0x00, 0x00, 0x00, 0x00,
   0x00, 0xc0, 0x01, 0x00, 0x00, 0x00, 0x00, 0x00 };
