<?xml version="1.0" encoding="UTF-8"?>
<?xml-stylesheet type="text/css" href="stylesheet.css" ?>
<!--
drunken-octopus-pin-reference
Copyright (C) 2020  Marcio Teixeira

This program is free software: you can redistribute it and/or modify
it under the terms of the GNU Affero General Public License as
published by the Free Software Foundation, either version 3 of the
License, or (at your option) any later version.

This program is distributed in the hope that it will be useful,
but WITHOUT ANY WARRANTY; without even the implied warranty of
MERCHANTABILITY or FITNESS FOR A PARTICULAR PURPOSE.  See the
GNU Affero General Public License for more details.

You should have received a copy of the GNU Affero General Public License
along with this program.  If not, see <https://www.gnu.org/licenses/>.
-->
<svg width="1024" height="1024"
  xmlns="http://www.w3.org/2000/svg" xmlns:xlink="http://www.w3.org/1999/xlink">
  <image href="Archim2_v2.1a_1024x1024.webp" height="1024" width="1024"/>
  <circle cx="336" cy="635" r="7" class="pin fil_runout_pin"><title>Filament Runout Sensor 1</title></circle>
  <circle cx="336" cy="658" r="7" class="pin fil_runout2_pin"><title>Filament Runout Sensor 2</title></circle>
  <circle cx="289" cy="658" r="7" class="pin servo0_pin"><title>Bed Washers or BLTouch Servo</title></circle>
  <circle cx="289" cy="635" r="7" class="pin servo1_pin"><title>Unused (SERVO1_PIN)</title></circle>
  <circle cx="449" cy="635" r="7" class="pin neopixel_pin"><title>Neopixel Control</title></circle>
  <circle cx="246" cy="635" r="7" class="pwr ground_pin"><title>Ground</title></circle>
  <circle cx="246" cy="658" r="7" class="pwr vcc_3_3"><title>Power 3.3v</title></circle>
  <!--<circle cx="847" cy="648" r="7" class="pin erase_pin"><title>Erase (Sig)</title></circle>
  <circle cx="824" cy="648" r="7" class="pwr vcc_3_3"><title>Erase (3.3v)</title></circle>-->
  <circle cx="871" cy="627" r="7" class="pwr ground_pin"><title>Ground</title></circle>
  <circle cx="847" cy="627" r="7" class="pwr vcc_5_0"><title>Power 5v</title></circle>
  <circle cx="802" cy="649" r="7" class="pwr vcc_5_0"><title>Power 5v</title></circle>
  <circle cx="780" cy="648" r="7" class="pwr ground_pin"><title>Ground</title></circle>
  <circle cx="779" cy="625" r="7" class="pin esp3d_tx"><title>To ESP3D RX</title></circle>
  <circle cx="802" cy="625" r="7" class="pin esp3d_rx"><title>To ESP3D TX</title></circle>
  
  <circle cx="877" cy="398" r="7" class="pin z_min_pin"><title>Z-Min/Probe</title></circle>
  <circle cx="854" cy="398" r="7" class="pwr ground_pin"><title>Ground</title></circle>
  <circle cx="831" cy="398" r="7" class="pwr vcc_3_3"><title>Power 3.3v</title></circle>
  
  <circle cx="782" cy="398" r="7" class="pin y_min_pin"><title>Y-Min</title></circle>
  <circle cx="759" cy="398" r="7" class="pwr ground_pin"><title>Ground</title></circle>
  <circle cx="736" cy="398" r="7" class="pwr vcc_3_3"><title>Power 3.3v</title></circle>
  
  <circle cx="687" cy="398" r="7" class="pin x_min_pin"><title>X-Min</title></circle>
  <circle cx="664" cy="398" r="7" class="pwr ground_pin"><title>Ground</title></circle>
  <circle cx="641" cy="398" r="7" class="pwr vcc_3_3"><title>Power 3.3v</title></circle>
  
  <circle cx="831" cy="454" r="7" class="pin z_max_pin"><title>Z-Max</title></circle>
  <circle cx="854" cy="454" r="7" class="pwr ground_pin"><title>Ground</title></circle>
  <circle cx="877" cy="454" r="7" class="pwr vcc_3_3"><title>Power 3.3v</title></circle>
  
  <circle cx="736" cy="454" r="7" class="pin y_max_pin"><title>Y-Max</title></circle>
  <circle cx="759" cy="454" r="7" class="pwr ground_pin"><title>Ground</title></circle>
  <circle cx="782" cy="454" r="7" class="pwr vcc_3_3"><title>Power 3.3v</title></circle>
  
  <circle cx="641" cy="454" r="7" class="pin x_max_pin"><title>X-Max</title></circle>
  <circle cx="664" cy="454" r="7" class="pwr ground_pin"><title>Ground</title></circle>
  <circle cx="687" cy="454" r="7" class="pwr vcc_3_3"><title>Power 3.3v</title></circle>
  
  <circle cx="962" cy="885" r="7" class="pwr ground_pin"><title>Ground</title></circle>
  <circle cx="962" cy="837" r="7" class="pwr ground_pin"><title>Ground</title></circle>
  <circle cx="962" cy="861" r="7" class="pwr vcc_24"><title>Power 24v</title></circle>
  <circle cx="962" cy="813" r="7" class="pwr vcc_5_0"><title>Power 5v</title></circle>

  <circle cx="965" cy="205" r="7" class="pwr ground_pin"><title>Ground</title></circle>
  <circle cx="965" cy="295" r="7" class="pwr ground_pin"><title>Ground</title></circle>
  <circle cx="965" cy="390" r="7" class="pwr ground_pin"><title>Ground</title></circle>
  
  <circle cx="965" cy="250" r="7" class="pwr vcc_24"><title>Power 24v</title></circle>
  <circle cx="965" cy="342" r="7" class="pwr vcc_24"><title>Power 24v</title></circle>
  <circle cx="965" cy="435" r="7" class="pwr vcc_24"><title>Power 24v</title></circle>
  
  <rect x="816" y="639" width="40" height="20" class="connector erase_pin"><title>Erase Switch</title></rect>
  
  <rect x="213" y="474" width="112" height="42" class="connector lcd_swspi"><title>GLCD EXP1</title></rect>
  <rect x="213" y="560" width="112" height="42" class="connector lcd_hwspi"><title>GLCD EXP2 (or Touch LCD)</title></rect>
  <rect x="645" y="546" width="45" height="24" class="connector therm_e0_pin"><title>Hot End 1 Thermistor</title></rect>
  <rect x="718" y="546" width="45" height="24" class="connector therm_e1_pin"><title>Hot End 2 Thermistor</title></rect>
  <rect x="791" y="546" width="45" height="24" class="connector therm_bed_pin"><title>Bed Thermistor</title></rect>
  
  <rect x="140" y="74" width="80" height="32" class="connector heat_e0_pin"><title>Hot End 1 Heater</title></rect>
  <rect x="235" y="74" width="80" height="32" class="connector heat_e1_pin"><title>Hot End 2 Heater (or Case Light)</title></rect>
  <rect x="330" y="74" width="80" height="32" class="connector fan_e1_pin"><title>Hot End 2 Blower (or Z Brake)</title></rect>
  <rect x="420" y="74" width="80" height="32" class="connector fan_e0_pin"><title>Hot End 1 Blower</title></rect>
  <rect x="515" y="74" width="80" height="32" class="connector heat_bed_pin"><title>Bed Heater</title></rect>
  
  <rect x="70"  y="161" width="45" height="24" class="connector case_fan_pin"><title>Case Fan</title></rect>
  
  <rect x="150" y="933" width="91" height="22" class="connector x_stepper_pin"><title>X Stepper</title></rect>
  <rect x="290" y="935" width="91" height="22" class="connector y_stepper_pin"><title>Y Stepper</title></rect>
  <rect x="425" y="937" width="91" height="22" class="connector z_stepper_pin"><title>Z Stepper</title></rect>
  <rect x="540" y="939" width="91" height="22" class="connector z_stepper_pin"><title>Z Stepper</title></rect>
  <rect x="680" y="941" width="91" height="22" class="connector e0_stepper_pin"><title>Hot End 1 Stepper</title></rect>
  <rect x="820" y="943" width="91" height="22" class="connector e1_stepper_pin"><title>Hot End 2 Stepper</title></rect>
</svg>